# xmcd CD database file
#
# Track frame offsets:
#	150
#	14309
#	26952
#	38082
#	49959
#	61276
#	73880
#	87563
#	103817
#	116318
#	128060
#	150272
#	165887
#	181024
#	211693
#	239701
#
# Disc length: 3664 seconds
#
# Revision: 0
# Processed by: cddbd v1.5.2PL0 Copyright (c) Steve Scherf et al.
# Submitted via: CDex 1.51
#
DISCID=d00e4e10
DTITLE=Charlie Parker - Miles Davis - 1945-1953
DYEAR=2011
DGENRE=Jazz
TTITLE0=Now's the Time
TTITLE1=A Night in Tunisia
TTITLE2=Donna Lee
TTITLE3=Chasin' the Bird
TTITLE4=Milestones
TTITLE5=Little Willie Leaps
TTITLE6=Bird of Paradise
TTITLE7=Out of Nowhere
TTITLE8=Blue Bird
TTITLE9=Marmaduke
TTITLE10=Slow Boat to China
TTITLE11=Star Eyes
TTITLE12=K.C. Blues
TTITLE13=Round Midnight
TTITLE14=The Bluest Blues
TTITLE15=How High the Moon
EXTD=YEAR: 2011
EXTT0=
EXTT1=
EXTT2=
EXTT3=
EXTT4=
EXTT5=
EXTT6=
EXTT7=
EXTT8=
EXTT9=
EXTT10=
EXTT11=
EXTT12=
EXTT13=
EXTT14=
EXTT15=
PLAYORDER=
